<?xml version="1.0" encoding="utf-8"?>
<svg viewBox="0 0 512 512" xmlns="http://www.w3.org/2000/svg">
  <path d="M 463.5 287.987 L 472 287.987 C 485.3 287.987 496 298.687 496 311.987 L 496 439.987 C 496 449.687 490.2 458.487 481.2 462.187 C 472.2 465.887 461.9 463.887 455 456.987 L 413.4 415.387 C 325.8 501.887 184.7 501.587 97.6 414.387 C 10.1 326.887 10.1 185.087 97.6 97.587 C 185.1 10.087 326.9 10.087 414.4 97.587 C 426.9 110.087 426.9 130.387 414.4 142.887 C 401.9 155.387 381.6 155.387 369.1 142.887 C 306.6 80.387 205.3 80.387 142.8 142.887 C 80.3 205.387 80.3 306.687 142.8 369.187 C 205 431.387 305.5 431.687 368.1 370.187 L 327 328.987 C 320.1 322.087 318.1 311.787 321.8 302.787 C 325.5 293.787 334.3 287.987 344 287.987 L 463.5 287.987 Z" style="transform-origin: 263.988px 255.994px;" transform="matrix(-1, 0, 0, -1, 0, -0.000061035156)"/>
  <text style="font-family: Arial, sans-serif; font-size: 200px; font-weight: 700; white-space: pre;" x="194.597" y="331.541">30</text>
</svg>